<svg xmlns="http://www.w3.org/2000/svg" width="130" height="20" viewBox="0 0 130 20">
    <g fill="none" fill-rule="evenodd">
        <g fill="#111">
            <g>
                <g>
                    <path d="M7.958 2.437c.753 0 1.466.142 2.118.421.651.28 1.22.68 1.693 1.193.488.527.878 1.168 1.16 1.907.286.745.432 1.596.432 2.527 0 .932-.146 1.782-.433 2.53-.282.738-.671 1.378-1.16 1.904-.474.515-1.043.915-1.69 1.192-.655.28-1.368.42-2.12.42-.763 0-1.456-.137-2.12-.42-.647-.277-1.216-.677-1.692-1.194-.487-.524-.876-1.164-1.159-1.906-.287-.744-.432-1.594-.432-2.526 0-.931.145-1.781.433-2.53.28-.736.67-1.377 1.16-1.905.471-.512 1.04-.913 1.69-1.192.663-.283 1.356-.42 2.12-.42m5.688 12.168c.702-.745 1.264-1.65 1.671-2.696.397-1.03.599-2.183.599-3.425 0-1.243-.202-2.393-.6-3.42-.407-1.035-.969-1.937-1.67-2.68-.71-.755-1.564-1.348-2.538-1.764C10.137.209 9.077 0 7.958 0c-1.12 0-2.18.209-3.152.622-.972.415-1.826 1.008-2.536 1.762C1.562 3.134 1 4.037.6 5.067.2 6.092 0 7.242 0 8.485c0 1.242.201 2.394.599 3.426.4 1.038.964 1.942 1.674 2.687.71.747 1.563 1.336 2.535 1.75.97.412 2.03.621 3.15.621 1.026 0 2.001-.172 2.905-.513l2.335 2.212h3.545l-3.654-3.538c.195-.166.38-.341.557-.524M31.241 14.532c-.753 0-1.464-.142-2.117-.422-.649-.275-1.218-.676-1.693-1.191-.485-.525-.875-1.167-1.16-1.908-.287-.744-.433-1.594-.433-2.526 0-.931.146-1.781.432-2.527.285-.738.675-1.38 1.16-1.908.473-.512 1.043-.913 1.697-1.192.649-.28 1.36-.42 2.114-.42.756 0 1.469.14 2.12.42.656.28 1.21.671 1.693 1.19.486.53.877 1.172 1.161 1.91.287.746.432 1.596.432 2.527 0 .932-.145 1.782-.432 2.526-.285.74-.675 1.383-1.158 1.906-.488.526-1.042.916-1.698 1.194-.65.28-1.363.42-2.118.42M36.93 2.386c-.712-.758-1.566-1.351-2.537-1.763C33.424.209 32.364 0 31.242 0c-1.122 0-2.18.21-3.148.621-.977.415-1.832 1.01-2.537 1.763-.708.75-1.27 1.653-1.671 2.683-.4 1.03-.603 2.18-.603 3.418 0 1.236.203 2.388.602 3.426.401 1.038.965 1.942 1.673 2.685.707.748 1.56 1.338 2.536 1.751.967.413 2.026.622 3.147.622 1.123 0 2.184-.21 3.15-.621.97-.412 1.823-1 2.535-1.75.71-.745 1.274-1.649 1.675-2.688.399-1.036.602-2.189.602-3.425 0-1.237-.203-2.388-.603-3.418-.4-1.03-.963-1.932-1.67-2.682M54.669 14.532c-.763 0-1.457-.138-2.121-.422-.653-.277-1.207-.667-1.693-1.191-.485-.525-.875-1.167-1.16-1.908-.285-.738-.43-1.588-.43-2.526 0-.937.145-1.787.43-2.527.284-.738.674-1.38 1.158-1.906.485-.523 1.04-.913 1.696-1.194.663-.283 1.356-.42 2.12-.42.753 0 1.466.141 2.118.42.65.28 1.22.68 1.693 1.193.49.529.869 1.153 1.16 1.907.286.746.432 1.596.432 2.527 0 .932-.146 1.782-.433 2.526-.287.747-.677 1.388-1.16 1.908-.475.514-1.044.916-1.691 1.192-.654.28-1.367.42-2.12.42m5.689-12.146c-.711-.756-1.567-1.35-2.54-1.763C56.847.209 55.788 0 54.668 0s-2.18.209-3.152.622c-.973.415-1.826 1.008-2.536 1.762-.708.75-1.27 1.653-1.671 2.683-.4 1.03-.603 2.18-.603 3.418 0 1.236.203 2.389.602 3.426.401 1.038.965 1.942 1.674 2.687.71.747 1.563 1.335 2.535 1.75.971.412 2.031.621 3.15.621 1.122 0 2.18-.21 3.147-.621.973-.413 1.828-1.002 2.538-1.75.707-.74 1.27-1.645 1.671-2.688.4-1.036.603-2.189.603-3.425 0-1.238-.203-2.388-.603-3.418-.402-1.034-.963-1.937-1.667-2.682M82.933 11.884c-.504.864-1.166 1.528-1.966 1.973-.804.448-1.717.675-2.713.675-.764 0-1.461-.138-2.132-.422-.655-.277-1.231-.68-1.713-1.195-.49-.524-.882-1.164-1.167-1.904-.287-.744-.432-1.594-.432-2.526 0-.93.145-1.781.432-2.527.284-.737.677-1.378 1.167-1.904.48-.513 1.056-.915 1.713-1.195.67-.284 1.368-.422 2.132-.422.96 0 1.838.208 2.611.617.773.408 1.392.987 1.893 1.768l.447.698 2.103-1.346-.46-.701c-.719-1.1-1.66-1.963-2.797-2.568C80.923.305 79.646 0 78.254 0c-1.118 0-2.18.209-3.16.62-.979.415-1.84 1.008-2.557 1.762-.715.753-1.28 1.657-1.68 2.685-.4 1.03-.602 2.18-.602 3.418 0 1.237.202 2.389.602 3.426.4 1.037.966 1.942 1.684 2.69.717.746 1.576 1.334 2.555 1.748.977.411 2.04.62 3.158.62 1.423 0 2.745-.333 3.927-.99 1.191-.661 2.148-1.592 2.843-2.767l.382-.644-2.007-1.482-.466.798zM105.824 11.088l-.465.796c-.514.88-1.156 1.524-1.967 1.972-.815.455-1.702.676-2.712.676-.755 0-1.47-.142-2.13-.423-.66-.278-1.222-.669-1.716-1.194-.49-.526-.882-1.165-1.163-1.904-.287-.744-.432-1.593-.432-2.526 0-.931.145-1.782.433-2.53.28-.733.67-1.373 1.16-1.9.493-.523 1.055-.915 1.72-1.196.657-.28 1.373-.421 2.128-.421.962 0 1.841.207 2.614.616.774.409 1.391.987 1.888 1.766l.446.7 2.112-1.346-.464-.703c-.724-1.101-1.665-1.964-2.797-2.567-1.131-.6-2.41-.904-3.8-.904-1.12 0-2.181.209-3.154.62-.978.412-1.839 1.005-2.558 1.76-.71.745-1.276 1.648-1.684 2.687-.398 1.025-.6 2.175-.6 3.418 0 1.242.202 2.394.6 3.428.407 1.045.975 1.95 1.687 2.688.72.749 1.58 1.337 2.554 1.747.974.412 2.035.621 3.156.621 1.425 0 2.748-.333 3.93-.99 1.191-.661 2.148-1.592 2.843-2.767l.383-.646-2.012-1.478z" transform="translate(-460 -35) translate(460 20) translate(0 15)"/>
                    <path d="M10.764 11.976c0 .825-.673 1.5-1.498 1.5-.83 0-1.502-.675-1.502-1.5 0-.83.672-1.5 1.502-1.5.825 0 1.498.67 1.498 1.5M122.396.389L120.718.389 113.774 16.58 116.516 16.58 121.555 4.638 126.597 16.58 129.34 16.58z" transform="translate(-460 -35) translate(460 20) translate(0 15)"/>
                </g>
            </g>
        </g>
    </g>
</svg>
